<svg width="402" height="195" viewBox="0 0 402 195" fill="none" xmlns="http://www.w3.org/2000/svg">
<path d="M-34.6937 167.601C-27.2162 176.556 -19.7386 185.512 -12.2611 194.467C-5.36503 188.327 2.01922 181.957 9.20285 175.908C74.9375 121.198 145.822 71.0965 224.129 36.8435C263.056 20.4856 305.193 7.10741 346.949 12.1957C389.584 15.9434 422.222 52.728 432.662 94.2991C435.456 104.143 437.249 112.499 438.858 122.704C437.828 112.424 436.608 103.94 434.357 93.8642C426.689 51.7564 394.677 9.60067 348.53 2.70139C303.816 -5.45473 259.041 6.12358 217.749 20.5479C134.665 51.0931 59.5169 97.7377 -11.419 149.825C-19.1838 155.591 -27.1752 161.701 -34.6937 167.601Z" fill="url(#paint0_linear_1_143)"/>
<defs>
<linearGradient id="paint0_linear_1_143" x1="8.96443" y1="55.9574" x2="76.3104" y2="239.815" gradientUnits="userSpaceOnUse">
<stop stop-color="#EC30E4"/>
<stop offset="1" stop-color="#581DFF"/>
</linearGradient>
</defs>
</svg>
